<mxfile host="app.diagrams.net" modified="2020-12-10T09:29:43.032Z" agent="5.0 (Windows NT 10.0; Win64; x64) AppleWebKit/537.36 (KHTML, like Gecko) Chrome/87.0.4280.67 Safari/537.36 Edg/87.0.664.47" etag="VvlZiZKFS_Jk01G0wOvD" version="14.0.0" type="github">
  <diagram id="YnG9KjK32i29kWnINn3J" name="Page-1">
    <mxGraphModel dx="1247" dy="686" grid="1" gridSize="10" guides="1" tooltips="1" connect="1" arrows="1" fold="1" page="1" pageScale="1" pageWidth="827" pageHeight="1169" math="0" shadow="0">
      <root>
        <mxCell id="0" />
        <mxCell id="1" parent="0" />
        <mxCell id="nmfMwJQgyPuKPXb5mDnR-3" value="" style="edgeStyle=orthogonalEdgeStyle;rounded=0;orthogonalLoop=1;jettySize=auto;html=1;" edge="1" parent="1" source="nmfMwJQgyPuKPXb5mDnR-1" target="nmfMwJQgyPuKPXb5mDnR-2">
          <mxGeometry relative="1" as="geometry" />
        </mxCell>
        <mxCell id="nmfMwJQgyPuKPXb5mDnR-1" value="比分项目" style="rounded=0;whiteSpace=wrap;html=1;" vertex="1" parent="1">
          <mxGeometry x="90" y="130" width="120" height="60" as="geometry" />
        </mxCell>
        <mxCell id="nmfMwJQgyPuKPXb5mDnR-6" value="" style="edgeStyle=orthogonalEdgeStyle;rounded=0;orthogonalLoop=1;jettySize=auto;html=1;" edge="1" parent="1" source="nmfMwJQgyPuKPXb5mDnR-2" target="nmfMwJQgyPuKPXb5mDnR-5">
          <mxGeometry relative="1" as="geometry" />
        </mxCell>
        <mxCell id="nmfMwJQgyPuKPXb5mDnR-2" value="投递消息到redis" style="rounded=0;whiteSpace=wrap;html=1;" vertex="1" parent="1">
          <mxGeometry x="294" y="130" width="120" height="60" as="geometry" />
        </mxCell>
        <mxCell id="nmfMwJQgyPuKPXb5mDnR-8" value="" style="edgeStyle=orthogonalEdgeStyle;rounded=0;orthogonalLoop=1;jettySize=auto;html=1;" edge="1" parent="1" source="nmfMwJQgyPuKPXb5mDnR-5" target="nmfMwJQgyPuKPXb5mDnR-7">
          <mxGeometry relative="1" as="geometry" />
        </mxCell>
        <mxCell id="nmfMwJQgyPuKPXb5mDnR-5" value="消息队列进程" style="rounded=0;whiteSpace=wrap;html=1;" vertex="1" parent="1">
          <mxGeometry x="470" y="130" width="120" height="60" as="geometry" />
        </mxCell>
        <mxCell id="nmfMwJQgyPuKPXb5mDnR-10" value="" style="edgeStyle=orthogonalEdgeStyle;rounded=0;orthogonalLoop=1;jettySize=auto;html=1;" edge="1" parent="1" source="nmfMwJQgyPuKPXb5mDnR-7" target="nmfMwJQgyPuKPXb5mDnR-9">
          <mxGeometry relative="1" as="geometry" />
        </mxCell>
        <mxCell id="nmfMwJQgyPuKPXb5mDnR-7" value="websocket" style="rounded=0;whiteSpace=wrap;html=1;" vertex="1" parent="1">
          <mxGeometry x="470" y="240" width="120" height="60" as="geometry" />
        </mxCell>
        <mxCell id="nmfMwJQgyPuKPXb5mDnR-11" style="edgeStyle=orthogonalEdgeStyle;rounded=0;orthogonalLoop=1;jettySize=auto;html=1;" edge="1" parent="1" source="nmfMwJQgyPuKPXb5mDnR-9" target="nmfMwJQgyPuKPXb5mDnR-7">
          <mxGeometry relative="1" as="geometry">
            <Array as="points">
              <mxPoint x="420" y="260" />
              <mxPoint x="420" y="260" />
            </Array>
          </mxGeometry>
        </mxCell>
        <mxCell id="nmfMwJQgyPuKPXb5mDnR-9" value="用户" style="rounded=0;whiteSpace=wrap;html=1;" vertex="1" parent="1">
          <mxGeometry x="240" y="240" width="120" height="60" as="geometry" />
        </mxCell>
      </root>
    </mxGraphModel>
  </diagram>
</mxfile>
